<?xml version="1.0" encoding="UTF-8"?><svg xmlns="http://www.w3.org/2000/svg" viewBox="0 0 793.44 839.33"><defs><style>.n{fill:#575756;}.o{fill:#e30613;}.p{fill:#878787;}.q{fill:#c6c6c6;}.r{fill:#666;}</style></defs><g id="a"/><g id="b"/><g id="c"/><g id="d"/><g id="e"/><g id="f"><g><path class="r" d="M85.35,507.49c.18-.12,.38-.25,.56-.37-.03-.12-.25,.07-.56,.37Z"/><g><path class="p" d="M748.46,296.37c1.03-1.72,1.62-3.64,1.62-5.67,0-7.35-7.55-13.32-16.87-13.32s-16.87,5.96-16.87,13.32c0,1.15,.2,2.26,.55,3.32-.16,.08-.32,.15-.48,.24-3.54-12.34-11.53-20.94-20.81-20.94-6.33,0-12.05,3.99-16.17,10.44,3.57,11.99,11.21,25.59,16.45,42.52,2.84,1.2,5.6,2.49,8.27,3.87l2.87,1.49c4.58,1.19,4.11,4.44,7.56-3.61,4.44,2.91,10.09,4.66,16.24,4.66,14.29,0,25.87-9.4,25.87-20.99,0-6.05-3.18-11.49-8.23-15.32Z"/><path class="r" d="M135.16,345.7c-12.74-3.13-25.21-2.33-35.06,2.18-.14-.08-.26-.17-.4-.25-12.88-7.44-32.07,1.68-42.86,20.37-2.98,5.17-5.01,10.52-6.11,15.73-15.48-4.7-33.61,3-43.04,19.34-9.72,16.83-6.88,37.08,5.89,47.93-.54,.44-1.05,.92-1.57,1.4,17.1-.15,31.61,2.47,31.61,2.47-10.06-21.04,8.23-29.6,8.23-29.6,0,0,.91-18.88,22.87-27.41,21.96-8.53,36.59,10.55,36.59,10.55,8.17-3.61,15.14-5.58,21.11-6.31-.95-19.02-.03-37.87,2.74-56.39Z"/></g><path class="r" d="M703.85,380.45c-3.42,7.06-7.9,14.25-13.49,21.55-2,41.62-13.53,82.02-34.13,118.92-1.68-.69-3.38-1.37-5.11-2.04-.47-.18-.95-.36-1.43-.54-1.3-.49-2.6-.98-3.93-1.46-.65-.24-1.32-.47-1.97-.7-1.17-.41-2.35-.82-3.54-1.23-.72-.24-1.45-.48-2.18-.72-1.16-.38-2.33-.76-3.51-1.13-.75-.24-1.5-.47-2.25-.7-1.21-.37-2.43-.73-3.65-1.09-.73-.22-1.46-.43-2.2-.64-1.34-.38-2.7-.76-4.06-1.13-.63-.17-1.26-.35-1.9-.52-1.97-.52-3.95-1.03-5.96-1.53-.04-.01-.08-.02-.12-.03-2.05-.5-4.12-.99-6.21-1.47-.67-.15-1.35-.3-2.02-.44-1.43-.32-2.86-.63-4.3-.93-.82-.17-1.64-.34-2.47-.5-1.32-.27-2.65-.53-3.98-.79-.88-.17-1.76-.33-2.65-.5-1.31-.24-2.62-.48-3.94-.71-.9-.16-1.79-.31-2.69-.47-1.36-.23-2.73-.45-4.1-.67-.86-.14-1.73-.28-2.6-.41-1.52-.23-3.06-.45-4.6-.67-.73-.1-1.45-.21-2.18-.31-2.21-.3-4.43-.59-6.67-.86l.02-.06h-.06c.13-.55,.24-1.09,.37-1.63,.39-1.69,.77-3.38,1.14-5.07,.41-1.84,.81-3.68,1.2-5.52,.05-.22,.09-.43,.13-.65-4.91,2.24-9.94,4.47-15.09,6.69-.17,.74-.34,1.48-.51,2.23-.2,.86-.41,1.71-.62,2.57-.29-.03-.58-.05-.87-.08-1.07-.1-2.14-.19-3.21-.28-1.37-.12-2.74-.23-4.12-.34-.1,0-.2-.01-.3-.02-6.26,2.61-12.69,5.2-19.28,7.78v4.4c.13,0,.27,0,.4,.02,.94,.04,1.88,.08,2.82,.12,1.54,.07,3.08,.16,4.62,.24,.85,.05,1.71,.09,2.56,.14,1.79,.11,3.58,.23,5.36,.36,.59,.04,1.17,.08,1.76,.12,2.31,.17,4.6,.36,6.89,.57-.14,.53-.28,1.06-.42,1.59-.43,1.55-.88,3.1-1.33,4.65-.54,1.87-1.08,3.73-1.65,5.59-.47,1.54-.95,3.08-1.44,4.62-.58,1.84-1.17,3.69-1.78,5.52-.5,1.53-1.02,3.05-1.54,4.58-.63,1.83-1.26,3.65-1.91,5.46-.54,1.51-1.09,3.01-1.64,4.51-.67,1.81-1.35,3.62-2.05,5.42-.57,1.48-1.14,2.96-1.73,4.43-.72,1.81-1.45,3.6-2.19,5.4-.6,1.45-1.2,2.89-1.81,4.33-.77,1.8-1.56,3.59-2.35,5.38-.62,1.41-1.24,2.81-1.88,4.21-.82,1.81-1.67,3.6-2.52,5.39-.64,1.35-1.27,2.71-1.93,4.06-.89,1.83-1.8,3.64-2.71,5.45-.65,1.28-1.28,2.57-1.94,3.84-.98,1.89-1.98,3.75-2.98,5.62-.63,1.17-1.25,2.36-1.89,3.52-1.13,2.05-2.28,4.08-3.44,6.1-.55,.96-1.08,1.92-1.63,2.87-1.65,2.83-3.33,5.63-5.04,8.41-.08,.13-.16,.26-.24,.39-1.8,2.91-3.63,5.79-5.5,8.65-.55,.84-1.12,1.66-1.67,2.49-1.32,1.99-2.65,3.98-4,5.94-.73,1.05-1.47,2.07-2.21,3.11-1.21,1.72-2.42,3.43-3.66,5.12-.81,1.11-1.65,2.2-2.47,3.3-.95,1.26-1.9,2.52-2.86,3.77-7.53,1.71-15.13,3.12-22.71,4.19l-7.93-68.18c-4.34,.99-8.71,1.81-13.1,2.51l7.82,67.22c-15.56,1.43-31.24,1.53-46.72,.31-.95-.98-1.9-1.97-2.85-2.96-.9-.95-1.81-1.89-2.71-2.85-1.29-1.38-2.56-2.78-3.83-4.18-.82-.9-1.64-1.79-2.45-2.7-1.39-1.56-2.76-3.15-4.13-4.73-.67-.77-1.35-1.53-2.01-2.31-1.85-2.17-3.67-4.36-5.48-6.58-.17-.21-.34-.41-.51-.62-1.99-2.44-3.95-4.91-5.88-7.41-.47-.61-.93-1.23-1.4-1.84-1.44-1.88-2.88-3.76-4.29-5.67-.66-.9-1.31-1.81-1.97-2.72-1.19-1.64-2.39-3.28-3.56-4.94-.73-1.03-1.43-2.07-2.15-3.1-1.08-1.56-2.17-3.12-3.23-4.7-.74-1.1-1.47-2.22-2.21-3.34-1.01-1.53-2.02-3.07-3.02-4.61-.75-1.16-1.48-2.34-2.22-3.51-.96-1.52-1.91-3.05-2.85-4.59-.4-.65-.79-1.32-1.19-1.97-4.99-1.74-7.87-3.04-8.23-3.21l-12.26-5.66c1.29,2.34,2.6,4.67,3.92,6.98,.53,.93,1.08,1.85,1.62,2.77,1.06,1.82,2.13,3.64,3.22,5.44,.62,1.03,1.25,2.06,1.88,3.08,1.04,1.7,2.09,3.38,3.15,5.06,.65,1.02,1.3,2.05,1.95,3.07,1.1,1.72,2.22,3.42,3.35,5.12,.61,.93,1.22,1.86,1.84,2.78,1.38,2.04,2.77,4.07,4.18,6.08,.38,.54,.75,1.1,1.13,1.64,1.79,2.54,3.6,5.05,5.44,7.54,.52,.71,1.06,1.41,1.59,2.12,1.33,1.78,2.67,3.56,4.03,5.32,.7,.91,1.42,1.81,2.13,2.72,1.21,1.55,2.44,3.09,3.67,4.62,.76,.94,1.52,1.88,2.29,2.81,1.24,1.51,2.48,3,3.74,4.48,.75,.89,1.51,1.79,2.27,2.68,1.38,1.6,2.77,3.19,4.17,4.77,.65,.73,1.28,1.47,1.94,2.19,.15,.17,.29,.34,.44,.5-56.44-8.83-108.85-35.34-149.76-75.92,.55-.39,1.1-.78,1.66-1.17,.51-.35,1.02-.71,1.54-1.06,1.03-.7,2.07-1.39,3.12-2.09,.42-.27,.82-.55,1.24-.82,1.49-.97,2.99-1.93,4.53-2.89,.14-.09,.28-.17,.42-.26,1.39-.86,2.81-1.72,4.24-2.57,.5-.3,1.01-.59,1.52-.89,1.09-.64,2.19-1.28,3.3-1.91,.59-.34,1.19-.67,1.79-1.01,1.06-.59,2.12-1.18,3.19-1.77,.62-.34,1.24-.68,1.87-1.01,1.1-.59,2.22-1.18,3.34-1.77,.6-.31,1.19-.62,1.79-.93,1.28-.66,2.58-1.31,3.88-1.96,.45-.23,.9-.45,1.35-.68,1.79-.88,3.59-1.75,5.41-2.62,.16-.07,.31-.15,.47-.22,1.65-.78,3.32-1.55,5.01-2.32,.57-.26,1.14-.51,1.71-.76,1.29-.58,2.59-1.16,3.9-1.73,.67-.29,1.35-.58,2.02-.87,1.24-.53,2.49-1.06,3.75-1.59,.69-.29,1.39-.58,2.08-.86,1.3-.53,2.6-1.06,3.91-1.58,.66-.26,1.31-.52,1.97-.78,1.51-.59,3.03-1.18,4.56-1.76,.46-.18,.92-.36,1.38-.53,.14-.05,.28-.1,.42-.15,.33,.72,.67,1.43,1,2.15,.53,1.14,1.06,2.28,1.59,3.42,.87,1.85,1.75,3.69,2.65,5.52,.53,1.09,1.06,2.18,1.59,3.26,.42,.85,.85,1.69,1.28,2.53l15.31,.71c-.55-1.05-1.1-2.09-1.64-3.14-.8-1.57-1.6-3.14-2.39-4.72-.67-1.34-1.33-2.67-1.99-4.02-.78-1.59-1.54-3.2-2.3-4.81-.64-1.35-1.28-2.69-1.91-4.05-.21-.45-.41-.91-.62-1.37,.07-.02,.14-.05,.21-.07,.46-.16,.94-.31,1.4-.47,1.82-.62,3.65-1.23,5.5-1.83,.82-.27,1.64-.52,2.47-.79,1.51-.48,3.02-.96,4.54-1.43,.94-.29,1.89-.58,2.84-.86,1.42-.43,2.84-.86,4.28-1.28,1-.29,2-.58,3.01-.87,1.41-.4,2.82-.8,4.23-1.19,1.02-.28,2.04-.56,3.06-.84,1.43-.39,2.88-.77,4.32-1.15,1.01-.27,2.02-.53,3.04-.79,1.51-.39,3.03-.76,4.54-1.14,.96-.24,1.91-.48,2.87-.71,1.73-.42,3.47-.82,5.21-1.23,.76-.18,1.51-.36,2.27-.53,2.49-.57,4.99-1.12,7.5-1.66,.55-.12,1.11-.23,1.66-.35,1.98-.42,3.96-.83,5.95-1.23,.93-.19,1.87-.37,2.8-.55,1.62-.32,3.24-.63,4.86-.94,.55-.1,1.09-.2,1.64-.3-3.22-3.51-6.31-7.46-9.23-11.78-.96,.19-1.93,.37-2.89,.57-1.82,.37-3.63,.74-5.43,1.12-.8,.17-1.6,.33-2.39,.5-2.6,.56-5.19,1.13-7.76,1.72-.23,.05-.46,.11-.69,.16-2.34,.54-4.67,1.09-6.98,1.65-.87,.21-1.73,.43-2.59,.64-1.68,.42-3.36,.83-5.02,1.26-1,.26-1.99,.52-2.98,.78-1.52,.4-3.05,.8-4.56,1.22-1.04,.28-2.07,.57-3.11,.86-1.46,.41-2.91,.81-4.36,1.23-1.05,.3-2.1,.61-3.14,.91-1.42,.42-2.83,.84-4.24,1.27-1.04,.32-2.08,.63-3.11,.95-1.41,.44-2.82,.88-4.22,1.33-1,.32-2.01,.64-3.01,.97-1.44,.47-2.88,.95-4.31,1.43-.94,.31-1.88,.63-2.81,.94-.25,.08-.5,.17-.75,.25-.2-.46-.4-.93-.6-1.39-.54-1.28-1.07-2.56-1.59-3.85-.6-1.47-1.21-2.94-1.8-4.42-.52-1.3-1.03-2.6-1.53-3.9-.57-1.47-1.14-2.95-1.7-4.43-.5-1.31-.98-2.63-1.47-3.94-.55-1.49-1.09-2.97-1.62-4.46-.47-1.32-.94-2.65-1.4-3.97-.52-1.5-1.03-3-1.54-4.5-.45-1.33-.89-2.66-1.32-4-.49-1.51-.98-3.03-1.46-4.54-.42-1.34-.84-2.67-1.25-4.02-.47-1.53-.92-3.06-1.38-4.59-.4-1.34-.79-2.69-1.18-4.03-.44-1.54-.87-3.09-1.3-4.64-.37-1.35-.74-2.69-1.1-4.04-.42-1.56-.82-3.13-1.22-4.7-.34-1.34-.69-2.69-1.02-4.04-.39-1.59-.77-3.18-1.14-4.77-.32-1.34-.64-2.68-.94-4.02-.06-.24-.11-.49-.16-.73l-10.98,11.41c.09,.38,.18,.76,.27,1.14,.35,1.42,.71,2.83,1.07,4.25,.4,1.57,.8,3.14,1.22,4.7,.38,1.42,.76,2.83,1.15,4.25,.43,1.55,.86,3.1,1.3,4.64,.4,1.41,.82,2.83,1.23,4.24,.45,1.53,.91,3.07,1.38,4.6,.43,1.41,.87,2.82,1.31,4.22,.48,1.52,.97,3.04,1.46,4.55,.46,1.4,.92,2.8,1.38,4.19,.51,1.51,1.02,3.02,1.54,4.52,.48,1.39,.96,2.77,1.45,4.15,.54,1.51,1.08,3.01,1.63,4.51,.5,1.37,1,2.74,1.52,4.1,.57,1.51,1.15,3,1.73,4.5,.52,1.35,1.04,2.69,1.58,4.03,.6,1.51,1.22,3.01,1.83,4.51,.54,1.32,1.08,2.64,1.63,3.96,.14,.33,.27,.67,.42,1.01l-.05,.02,.02,.05c-.35,.13-.69,.27-1.04,.4-1.69,.64-3.38,1.29-5.04,1.95-.79,.31-1.57,.63-2.36,.95-1.25,.5-2.49,1-3.72,1.51-.85,.35-1.7,.71-2.55,1.06-1.15,.48-2.3,.97-3.44,1.46-.86,.37-1.71,.74-2.57,1.11-1.12,.49-2.24,.99-3.35,1.48-.83,.37-1.67,.75-2.49,1.12-1.14,.52-2.27,1.05-3.4,1.58-.77,.36-1.54,.72-2.3,1.08-1.26,.6-2.51,1.21-3.75,1.82-.61,.3-1.22,.59-1.83,.89-1.82,.9-3.61,1.81-5.39,2.73-.43,.22-.84,.44-1.26,.67-1.37,.71-2.73,1.43-4.07,2.16-.65,.35-1.29,.71-1.94,1.06-1.1,.6-2.19,1.2-3.27,1.81-.69,.39-1.38,.79-2.07,1.18-1.01,.58-2.02,1.16-3.02,1.75-.69,.41-1.38,.82-2.06,1.23-.98,.59-1.96,1.18-2.92,1.78-.66,.41-1.32,.81-1.97,1.22-1,.63-1.98,1.26-2.96,1.89-.59,.38-1.18,.76-1.76,1.14-1.15,.76-2.28,1.52-3.41,2.28-.38,.26-.78,.52-1.16,.78-1.43,.98-2.83,1.96-4.21,2.96-38.76-42.38-62.72-94.89-69.39-152.25-6.87-59.07,5.2-117.12,34.94-168.26,1.4,.56,2.82,1.11,4.24,1.65,.14,.05,.27,.1,.41,.15,1.41,.53,2.84,1.05,4.28,1.57,.54,.19,1.09,.38,1.63,.57,1.05,.37,2.11,.73,3.17,1.09,.63,.21,1.26,.42,1.9,.63,1,.33,2.01,.66,3.03,.98,.66,.21,1.33,.42,1.99,.62,1.02,.31,2.05,.62,3.08,.93,.66,.2,1.32,.39,1.99,.59,1.09,.32,2.19,.63,3.3,.93,.61,.17,1.22,.34,1.83,.51,1.37,.37,2.74,.73,4.13,1.09,.36,.09,.72,.19,1.09,.28,1.75,.45,3.52,.88,5.3,1.3,.51,.12,1.03,.24,1.55,.36,1.28,.3,2.56,.59,3.86,.88,.69,.15,1.39,.3,2.08,.45,1.14,.25,2.28,.49,3.44,.73,.75,.15,1.5,.31,2.26,.46,1.12,.22,2.25,.44,3.38,.66,.77,.15,1.54,.29,2.31,.44,1.16,.21,2.33,.42,3.5,.63,.75,.13,1.49,.26,2.24,.39,1.3,.22,2.62,.44,3.94,.65,.62,.1,1.24,.21,1.87,.3,1.88,.29,3.78,.58,5.69,.85v.05h.04c-.02,.21-.04,.41-.07,.61-.13,1.07-.24,2.14-.37,3.21-.17,1.48-.34,2.96-.49,4.44-.12,1.11-.22,2.23-.33,3.35-.14,1.44-.28,2.88-.41,4.33-.1,1.14-.19,2.29-.29,3.44-.12,1.42-.23,2.84-.34,4.26-.08,1.16-.16,2.32-.24,3.48-.09,1.41-.19,2.83-.27,4.25-.07,1.17-.13,2.33-.19,3.5-.07,1.41-.14,2.82-.2,4.23-.05,1.18-.09,2.36-.14,3.54-.05,1.4-.09,2.81-.13,4.21-.03,1.19-.06,2.37-.08,3.56-.03,1.41-.05,2.81-.07,4.22-.01,1.19-.03,2.38-.03,3.57,0,1.41,0,2.82,0,4.23,0,1.19,0,2.38,.02,3.57,.01,1.42,.04,2.83,.07,4.25,.02,1.18,.04,2.37,.07,3.55,.04,1.43,.08,2.86,.13,4.29,.04,1.17,.08,2.34,.13,3.52,.06,1.45,.13,2.91,.2,4.36,.06,1.15,.11,2.3,.17,3.44,.08,1.49,.18,2.99,.28,4.49,.07,1.11,.14,2.22,.22,3.33,.11,1.57,.24,3.13,.36,4.7,.08,1.04,.16,2.08,.25,3.12,.15,1.73,.32,3.47,.48,5.2,.08,.87,.16,1.74,.25,2.62,.26,2.61,.55,5.21,.85,7.82,.36,3.11,.75,6.21,1.17,9.3,.14,1.04,.3,2.08,.44,3.11,.29,2.05,.57,4.1,.89,6.14,.19,1.25,.4,2.49,.6,3.73,.29,1.83,.58,3.66,.89,5.48,.23,1.33,.47,2.65,.71,3.97,.31,1.73,.62,3.46,.94,5.18,.26,1.37,.54,2.74,.81,4.11,.25,1.27,.51,2.53,.76,3.8l4.92-12.33c.15-.37,1.57-3.88,4.56-9.49-.15-.95-.31-1.89-.46-2.83-.19-1.2-.39-2.4-.58-3.6-.3-1.99-.58-3.99-.86-5.99-.14-1.02-.3-2.03-.44-3.05-.41-3.02-.79-6.05-1.14-9.08-.3-2.54-.57-5.08-.83-7.61-.09-.84-.16-1.68-.24-2.53-.16-1.7-.33-3.39-.47-5.09-.09-1.01-.16-2.03-.24-3.04-.12-1.52-.25-3.04-.35-4.56-.08-1.09-.14-2.18-.21-3.26-.09-1.45-.19-2.9-.27-4.35-.06-1.12-.11-2.23-.17-3.35-.07-1.42-.14-2.84-.2-4.25-.05-1.14-.08-2.28-.12-3.42-.05-1.39-.09-2.78-.13-4.17-.03-1.16-.05-2.32-.07-3.48-.03-1.37-.05-2.73-.06-4.1-.01-1.17-.02-2.34-.02-3.52,0-1.35,0-2.71,0-4.06,0-1.18,.02-2.35,.03-3.53,.02-1.35,.04-2.69,.06-4.03,.02-1.18,.05-2.37,.08-3.55,.04-1.33,.08-2.66,.12-3.99,.04-1.19,.09-2.38,.14-3.57,.06-1.32,.12-2.65,.19-3.97,.06-1.19,.12-2.38,.19-3.57,.08-1.32,.16-2.63,.25-3.95,.08-1.19,.16-2.38,.24-3.58,.1-1.31,.2-2.61,.31-3.92,.1-1.19,.19-2.39,.3-3.58,.12-1.3,.24-2.61,.37-3.91,.12-1.19,.23-2.38,.35-3.57,.14-1.3,.28-2.59,.43-3.89,.13-1.19,.26-2.38,.41-3.57,.02-.16,.04-.33,.06-.49,.25,.03,.5,.05,.74,.08,1.05,.12,2.1,.22,3.15,.33,1.55,.16,3.1,.33,4.65,.48,1.12,.11,2.24,.2,3.36,.3,1.51,.13,3.02,.27,4.55,.39,1.16,.09,2.32,.18,3.48,.26,1.5,.11,3.01,.21,4.53,.31,1.18,.08,2.36,.15,3.54,.22,1.52,.09,3.05,.17,4.59,.24,1.18,.06,2.35,.12,3.53,.17,1.57,.07,3.15,.12,4.73,.18,1.15,.04,2.29,.08,3.44,.11,1.68,.05,3.38,.08,5.07,.11,1.05,.02,2.11,.05,3.16,.06,2.04,.03,4.1,.04,6.15,.04,.71,0,1.42,.01,2.14,.01,2.76,0,5.53-.03,8.3-.07,.8-.01,1.6-.04,2.4-.05,1.99-.04,3.99-.08,5.99-.14,1.08-.03,2.16-.07,3.24-.11,1.74-.06,3.47-.12,5.22-.19,1.16-.05,2.33-.11,3.49-.17,1.66-.08,3.33-.16,5-.26,1.21-.07,2.41-.14,3.62-.22,1.64-.1,3.28-.21,4.92-.32,1.21-.09,2.43-.17,3.65-.27,1.65-.13,3.29-.26,4.94-.4,1.21-.1,2.41-.2,3.62-.31,1.68-.15,3.36-.31,5.04-.48,1.17-.11,2.34-.23,3.51-.35,.42-.04,.84-.08,1.25-.12v.03l4.95,42.47c4.21-1.19,8.55-2.27,13.01-3.25l-4.74-40.76v-.03c.57-.07,1.14-.16,1.71-.23,1.28-.17,2.57-.34,3.85-.52,1.82-.25,3.63-.5,5.45-.76,1.3-.19,2.6-.38,3.9-.58,1.79-.27,3.57-.55,5.35-.83,1.3-.21,2.6-.42,3.9-.63,1.79-.3,3.56-.6,5.34-.92,1.27-.22,2.55-.45,3.81-.68,1.82-.33,3.62-.67,5.43-1.02,1.22-.23,2.43-.46,3.64-.7,1.92-.38,3.84-.78,5.75-1.17,1.08-.22,2.16-.44,3.23-.67,2.43-.52,4.85-1.06,7.26-1.6,.54-.12,1.09-.24,1.63-.36,2.94-.67,5.85-1.37,8.76-2.08,.91-.22,1.8-.46,2.71-.68,2-.5,4-1.01,5.99-1.53,1.12-.29,2.24-.6,3.35-.9,1.75-.47,3.5-.94,5.23-1.43,1.19-.33,2.38-.68,3.56-1.02,1.65-.47,3.3-.95,4.93-1.44,1.2-.36,2.4-.72,3.6-1.09,1.61-.49,3.2-.98,4.8-1.49,1.19-.38,2.37-.75,3.55-1.14,1.59-.51,3.17-1.04,4.74-1.56,1.16-.39,2.31-.77,3.46-1.17,1.59-.55,3.17-1.1,4.75-1.66,1.1-.39,2.2-.78,3.3-1.17,1.65-.6,3.28-1.21,4.91-1.82,1-.37,2-.74,2.98-1.12,.27-.1,.54-.2,.81-.3,.06,.21,.13,.41,.19,.62,1.09,3.46,2.15,6.93,3.16,10.43l.02,.05c1.02,3.5,1.98,7.02,2.92,10.55,.08,.31,.17,.61,.25,.92,.89,3.37,1.74,6.76,2.55,10.16,.11,.45,.22,.91,.33,1.36,.79,3.32,1.54,6.65,2.26,9.99,.11,.52,.23,1.04,.34,1.57,.7,3.32,1.37,6.64,2.01,9.98,.1,.53,.2,1.06,.3,1.59,.63,3.36,1.23,6.73,1.79,10.1,.08,.47,.15,.94,.23,1.41,.56,3.46,1.1,6.93,1.59,10.4,.04,.31,.08,.62,.13,.94,.29,2.06,.53,4.13,.79,6.19,4.35-.91,8.72-1.75,13.08-2.52-.13-1.02-.27-2.05-.39-3.07l-2.22-1.28,2.03-.17c-.05-.39-.1-.78-.15-1.17-.04-.29-.08-.58-.12-.87-.51-3.63-1.07-7.25-1.66-10.87-.07-.46-.15-.91-.22-1.37-.58-3.51-1.21-7.01-1.87-10.5-.1-.54-.2-1.09-.31-1.63-.66-3.44-1.35-6.87-2.08-10.29-.12-.58-.25-1.15-.37-1.73-.74-3.41-1.51-6.81-2.32-10.19-.13-.56-.27-1.12-.41-1.68-.83-3.41-1.69-6.82-2.58-10.21-.13-.49-.26-.98-.39-1.47-.93-3.47-1.89-6.93-2.89-10.37-.1-.34-.21-.69-.31-1.03-1.06-3.59-2.14-7.17-3.28-10.73v-.03l.03-.02v-.04c.14-.07,.29-.14,.45-.2,2.5-1.06,4.96-2.13,7.4-3.21,.34-.15,.69-.3,1.03-.45,2.47-1.11,4.89-2.23,7.29-3.37,.47-.22,.94-.45,1.4-.67,2.38-1.14,4.72-2.29,7.03-3.45,.35-.18,.69-.35,1.03-.53,2.27-1.16,4.52-2.33,6.72-3.52,.17-.09,.34-.18,.51-.27,2.26-1.22,4.48-2.46,6.67-3.72,.4-.23,.81-.46,1.21-.69,2.12-1.23,4.21-2.46,6.26-3.72,.37-.22,.73-.45,1.1-.68,2.11-1.3,4.19-2.61,6.23-3.94,.06-.04,.12-.08,.18-.12,1.99-1.31,3.94-2.63,5.86-3.96,.2-.14,.42-.28,.63-.42,32.4,34.2,54.89,75.23,66.18,120.36,5.22,1.56,10.2,3.38,14.95,5.46-10.92-50.21-34.89-95.89-70.31-133.71l.09-.07-5.39-5.47-4.04-4.1-.08,.06c-33.81-32.92-75.31-57.07-120.53-70.09l-.04-.05-2.37-.66-17.29-4.81,.46,.69c-28.27-6.06-57.18-7.77-86.22-5.06v-.08l-6.61,.77-6.6,.77v.08c-20.28,2.83-40.12,7.8-59.22,14.82l.34-.72-16.22,7.1-2.29,1-.02,.03c-51.19,22.94-93.99,59.98-124.21,107.48l-.05-.02-2.99,4.92-3.99,6.56,.1,.04c-17.84,31.1-29.48,64.61-34.66,99.32-2.76,18.51-3.69,37.37-2.74,56.39,.32,6.41,.84,12.84,1.59,19.28,6.95,59.73,31.78,114.45,71.93,158.73l-.09,.06,5.13,5.38,4.1,4.3,.05-.04c47.02,47.3,108.83,76.68,174.92,83.11l.03,.03,2.44,.22h.02l17.97,1.59-.6-.61c11.49,.31,23.03-.05,34.51-1.12v.08l6.61-.77,6.61-.77v-.1c2.89-.41,5.8-.86,8.71-1.36l-.57,.74,18.41-4.36h.01l2.26-.54,.03-.04c72.51-17.82,135.95-64.23,175.2-128.07l.07,.03,3.01-5.13,3.76-6.42-.1-.04c24.84-44.95,36.89-94.8,35.39-145.83Zm-97.2-188.96c-.1,.07-.2,.14-.3,.21-1.73,1.18-3.5,2.35-5.29,3.51-.38,.24-.76,.49-1.14,.73-3.72,2.38-7.59,4.72-11.59,7.01-.4,.23-.8,.46-1.21,.69-1.96,1.11-3.96,2.21-5.98,3.3-.35,.19-.7,.37-1.05,.56-1.91,1.01-3.84,2.02-5.8,3.02-.28,.14-.56,.29-.84,.43-2.11,1.07-4.26,2.12-6.44,3.16-.47,.22-.94,.45-1.41,.67-2.2,1.04-4.43,2.08-6.7,3.1-.2,.09-.4,.18-.6,.26-2.14,.96-4.31,1.9-6.51,2.84-.29,.12-.57,.25-.86,.37-.05-.15-.11-.31-.16-.46-.18-.53-.38-1.05-.56-1.57-.63-1.77-1.26-3.54-1.91-5.3-.28-.76-.56-1.51-.84-2.27-.59-1.58-1.19-3.15-1.79-4.72-.29-.74-.57-1.49-.86-2.23-.7-1.8-1.42-3.6-2.14-5.39-.18-.45-.36-.91-.55-1.36-.91-2.22-1.83-4.44-2.77-6.64-.25-.59-.51-1.18-.76-1.77-.7-1.63-1.41-3.26-2.13-4.88-.34-.76-.67-1.51-1.01-2.26-.68-1.5-1.36-3-2.05-4.5-.33-.72-.67-1.44-1-2.16-.85-1.81-1.71-3.61-2.58-5.41-.17-.36-.34-.72-.52-1.08-1.04-2.14-2.1-4.27-3.18-6.39-.31-.6-.62-1.2-.93-1.81-.79-1.54-1.58-3.07-2.38-4.6-.38-.72-.76-1.45-1.15-2.17-.78-1.47-1.57-2.93-2.37-4.39-.36-.66-.72-1.32-1.08-1.97-1.05-1.89-2.11-3.78-3.18-5.66-.1-.18-.21-.37-.31-.55-1.19-2.07-2.4-4.13-3.62-6.18-.33-.55-.66-1.09-.99-1.64-.59-.98-1.18-1.97-1.77-2.95,36.58,12.87,70.18,33.51,98.33,60.45Zm-117.97-66.53c.49,.74,.98,1.49,1.47,2.24,.61,.94,1.23,1.88,1.84,2.83,.72,1.13,1.43,2.26,2.15,3.4,.57,.92,1.15,1.83,1.72,2.75,.75,1.21,1.49,2.44,2.23,3.66,.52,.85,1.04,1.7,1.55,2.56,.85,1.42,1.68,2.86,2.51,4.29,.39,.67,.79,1.33,1.17,2.01,1.2,2.1,2.39,4.21,3.56,6.34,.3,.54,.58,1.08,.88,1.62,.88,1.6,1.75,3.21,2.61,4.83,.43,.8,.84,1.61,1.26,2.42,.71,1.37,1.43,2.73,2.13,4.1,.45,.89,.9,1.79,1.35,2.68,.65,1.3,1.3,2.6,1.94,3.91,.46,.94,.91,1.88,1.36,2.83,.61,1.28,1.23,2.55,1.83,3.83,.45,.97,.9,1.94,1.35,2.91,.59,1.27,1.17,2.55,1.75,3.83,.44,.98,.88,1.97,1.31,2.95,.56,1.28,1.13,2.56,1.68,3.85,.43,.99,.85,1.99,1.27,2.98,.55,1.29,1.09,2.59,1.62,3.89,.41,1,.82,2,1.22,3,.53,1.31,1.05,2.63,1.57,3.95,.39,1,.78,1.99,1.17,3,.52,1.34,1.02,2.68,1.53,4.03,.37,.99,.74,1.97,1.11,2.96,.51,1.39,1.01,2.78,1.51,4.18,.34,.96,.69,1.91,1.02,2.87,.08,.24,.16,.48,.25,.72-.38,.15-.74,.3-1.12,.44-1.03,.39-2.06,.78-3.1,1.17-1.53,.58-3.07,1.15-4.62,1.71-1.09,.4-2.18,.78-3.28,1.17-1.52,.54-3.05,1.07-4.58,1.6-1.13,.39-2.26,.77-3.39,1.15-1.53,.51-3.08,1.02-4.63,1.52-1.15,.37-2.3,.74-3.46,1.11-1.57,.5-3.15,.98-4.73,1.46-1.15,.35-2.3,.7-3.46,1.05-1.64,.49-3.28,.96-4.93,1.43-1.12,.32-2.23,.65-3.36,.96-1.77,.5-3.56,.98-5.35,1.46-1.02,.27-2.03,.55-3.05,.82-2.27,.59-4.55,1.17-6.83,1.74-.55,.14-1.1,.28-1.66,.42-2.84,.7-5.7,1.38-8.57,2.03-.89,.2-1.79,.4-2.68,.6-2,.45-3.99,.89-6.01,1.32-1.14,.24-2.3,.48-3.45,.71-1.77,.37-3.55,.73-5.33,1.09-1.24,.24-2.48,.48-3.73,.72-1.71,.33-3.42,.65-5.14,.96-1.29,.23-2.58,.46-3.87,.69-1.69,.3-3.38,.59-5.08,.87-1.31,.22-2.62,.43-3.93,.64-1.7,.27-3.39,.54-5.09,.79-1.32,.2-2.64,.4-3.97,.59-1.71,.25-3.43,.49-5.15,.72-1.31,.18-2.62,.36-3.94,.53-.51,.07-1.02,.13-1.53,.19l-16.43-141.19c32.29-2.98,64.38-.25,95.55,8.12Zm-193.39,51.15c.22-.63,.43-1.26,.65-1.88,.92-2.59,1.86-5.16,2.83-7.73,.22-.57,.44-1.14,.66-1.71,.76-1.98,1.52-3.96,2.3-5.93,.37-.93,.75-1.84,1.13-2.77,.65-1.6,1.3-3.21,1.98-4.8,.43-1.03,.88-2.05,1.32-3.07,.64-1.48,1.27-2.96,1.92-4.42,.47-1.07,.96-2.13,1.45-3.2,.46-1.02,.93-2.03,1.4-3.05,22-9.38,45.17-15.82,69-19.18l16.43,141.19c-.38,.04-.76,.09-1.15,.13-1.12,.12-2.25,.22-3.37,.33-1.66,.16-3.32,.32-4.98,.47-1.17,.1-2.33,.2-3.5,.3-1.62,.14-3.25,.27-4.87,.39-1.17,.09-2.35,.18-3.52,.26-1.62,.11-3.23,.22-4.84,.32-1.17,.07-2.33,.15-3.49,.21-1.64,.09-3.27,.17-4.91,.25-1.13,.05-2.26,.11-3.38,.16-1.72,.07-3.44,.13-5.15,.19-1.03,.04-2.06,.08-3.08,.11-2.02,.06-4.03,.1-6.03,.14-.72,.01-1.44,.04-2.16,.05-2.71,.04-5.42,.06-8.12,.07-.69,0-1.38,0-2.07-.01-2.01,0-4.02-.01-6.02-.04-1-.01-2-.04-3-.06-1.68-.03-3.36-.06-5.03-.11-1.09-.03-2.18-.07-3.26-.11-1.58-.05-3.15-.11-4.72-.17-1.12-.05-2.23-.1-3.34-.15-1.54-.07-3.07-.15-4.59-.24-1.11-.06-2.22-.13-3.33-.2-1.53-.1-3.06-.2-4.58-.31-1.08-.08-2.15-.16-3.23-.24-1.56-.12-3.11-.26-4.66-.4-1.02-.09-2.04-.18-3.05-.27-1.65-.16-3.29-.33-4.93-.5-.89-.09-1.78-.18-2.66-.28-.22-.02-.43-.05-.64-.08,.05-.33,.09-.67,.14-1,.19-1.25,.39-2.49,.59-3.73,.25-1.55,.5-3.1,.76-4.64,.21-1.25,.44-2.5,.66-3.75,.27-1.52,.55-3.05,.83-4.56,.24-1.25,.48-2.5,.73-3.75,.3-1.51,.6-3.01,.91-4.52,.26-1.24,.52-2.48,.79-3.72,.32-1.5,.66-3,.99-4.5,.28-1.23,.56-2.45,.85-3.68,.35-1.5,.71-3,1.08-4.49,.3-1.21,.6-2.42,.9-3.62,.38-1.51,.78-3.01,1.18-4.51,.31-1.18,.62-2.36,.95-3.53,.42-1.53,.85-3.05,1.29-4.58,.32-1.14,.64-2.28,.98-3.41,.46-1.57,.94-3.14,1.42-4.71,.33-1.07,.65-2.14,.98-3.21,.53-1.67,1.07-3.33,1.61-5,.31-.95,.61-1.91,.93-2.86,.66-1.97,1.34-3.94,2.03-5.9Zm-2.75-29.89c-.98,2.32-1.93,4.65-2.87,6.99-.25,.63-.5,1.27-.75,1.9-.74,1.86-1.47,3.73-2.18,5.61-.34,.9-.68,1.81-1.02,2.71-.61,1.64-1.22,3.29-1.81,4.94-.34,.95-.68,1.9-1.01,2.85-.59,1.69-1.18,3.38-1.75,5.08-.3,.87-.6,1.74-.89,2.62-.73,2.2-1.44,4.4-2.14,6.61-.12,.37-.24,.73-.35,1.1-.8,2.57-1.58,5.14-2.33,7.73-.24,.8-.46,1.61-.69,2.42-.52,1.81-1.03,3.63-1.53,5.45-.26,.96-.52,1.93-.78,2.9-.46,1.71-.9,3.42-1.34,5.14-.25,.97-.49,1.94-.74,2.91-.46,1.85-.9,3.7-1.34,5.56-.19,.82-.39,1.63-.58,2.44-.61,2.65-1.2,5.32-1.77,7.99-.07,.35-.14,.71-.22,1.06-.49,2.33-.96,4.67-1.42,7.02-.17,.9-.34,1.8-.51,2.7-.34,1.83-.68,3.66-1,5.5-.18,1-.35,1.99-.52,2.99-.31,1.81-.6,3.62-.89,5.44-.15,.95-.3,1.91-.45,2.86-.07,.44-.14,.89-.21,1.33-1.82-.26-3.62-.53-5.41-.81-.48-.08-.96-.16-1.44-.23-1.37-.22-2.74-.44-4.09-.67-.64-.11-1.28-.22-1.92-.33-1.2-.21-2.39-.42-3.57-.64-.67-.12-1.34-.25-2-.37-1.18-.22-2.36-.45-3.53-.69-.61-.12-1.22-.24-1.83-.37-1.38-.28-2.74-.57-4.1-.86-.38-.08-.77-.16-1.15-.25-1.73-.38-3.44-.77-5.14-1.17-.44-.1-.86-.21-1.3-.31-1.26-.3-2.52-.61-3.76-.92-.59-.15-1.18-.3-1.76-.45-1.09-.28-2.17-.57-3.25-.85-.61-.16-1.22-.33-1.83-.5-1.07-.3-2.13-.6-3.19-.9-.56-.16-1.13-.32-1.69-.49-1.22-.36-2.42-.72-3.63-1.09-.38-.12-.76-.23-1.13-.34-1.57-.49-3.12-.99-4.65-1.5-.35-.12-.7-.24-1.05-.36-1.18-.4-2.35-.8-3.5-1.2-.52-.18-1.03-.37-1.55-.55-.99-.36-1.98-.72-2.96-1.08-.54-.2-1.07-.4-1.6-.61-.4-.15-.79-.31-1.19-.46,25.93-40.02,61.3-72.12,103.29-93.84Zm206.92,502.29c.21-.3,.42-.62,.63-.92,.68-.97,1.34-1.95,2-2.93,1.24-1.81,2.47-3.62,3.68-5.45,.73-1.1,1.44-2.2,2.16-3.31,1.14-1.76,2.26-3.53,3.38-5.31,.71-1.13,1.41-2.27,2.11-3.41,1.12-1.84,2.23-3.69,3.32-5.54,.64-1.09,1.29-2.17,1.92-3.26,1.24-2.14,2.45-4.31,3.65-6.48,.45-.82,.92-1.63,1.37-2.45,1.63-2.99,3.23-6,4.8-9.04,.37-.72,.72-1.45,1.09-2.17,1.19-2.34,2.37-4.7,3.52-7.07,.55-1.12,1.07-2.26,1.61-3.39,.95-2,1.89-4.01,2.81-6.03,.56-1.24,1.12-2.48,1.67-3.72,.87-1.96,1.73-3.93,2.58-5.91,.54-1.25,1.07-2.5,1.59-3.76,.86-2.06,1.7-4.13,2.52-6.21,.47-1.17,.94-2.34,1.4-3.51,.96-2.47,1.89-4.95,2.81-7.43,.29-.79,.6-1.57,.88-2.36,1.19-3.28,2.34-6.58,3.46-9.89,.28-.83,.54-1.68,.82-2.51,.82-2.5,1.64-5,2.42-7.51,.37-1.21,.73-2.42,1.1-3.63,.66-2.18,1.3-4.35,1.93-6.54,.37-1.3,.73-2.61,1.1-3.92,.29-1.04,.59-2.07,.87-3.11,.28,.03,.55,.06,.83,.09,.76,.09,1.52,.19,2.28,.28,1.46,.18,2.91,.37,4.36,.56,.83,.11,1.66,.23,2.49,.35,1.37,.19,2.74,.39,4.09,.6,.84,.13,1.67,.25,2.5,.38,1.37,.21,2.73,.44,4.08,.66,.79,.13,1.58,.26,2.36,.4,1.47,.25,2.93,.52,4.38,.79,.64,.12,1.29,.23,1.93,.35,2.08,.39,4.15,.8,6.19,1.22,.13,.03,.25,.05,.38,.08,1.91,.4,3.81,.81,5.69,1.23,.67,.15,1.32,.31,1.99,.46,1.33,.31,2.66,.62,3.98,.94,.76,.18,1.52,.37,2.27,.56,1.21,.3,2.41,.61,3.6,.92,.77,.2,1.54,.41,2.31,.61,1.17,.32,2.34,.64,3.5,.97,.74,.21,1.49,.42,2.22,.63,1.2,.35,2.39,.71,3.57,1.06,.66,.2,1.33,.4,1.99,.6,1.43,.45,2.85,.9,4.25,1.37,.38,.13,.77,.25,1.15,.37,1.77,.59,3.52,1.2,5.25,1.81,.5,.18,.98,.36,1.48,.54,1.23,.45,2.45,.9,3.65,1.36,.63,.24,1.25,.49,1.88,.74,.7,.28,1.4,.55,2.09,.83-34.53,55.27-88.16,96.65-149.92,115.99Z"/><g><path class="o" d="M699.26,339.6c-25.88-13.39-58.35-16.46-92.52-13.52,19.56,11.28,53.11,40.59,40.18,105.01,69.1-57.92,52.33-91.48,52.33-91.48Z"/><path class="p" d="M593.83,327.44c-99.46,12.6-207.87,70.57-207.87,70.57l46.72,129.38c101-31.15,164.67-61.55,204.57-88.5,11.96-71.62-16.94-100.15-43.43-111.46Zm-11.42,83.31c-13.96,5.04-27.77,2.19-30.86-6.36-3.09-8.55,5.72-19.57,19.68-24.61,13.96-5.04,27.77-2.19,30.86,6.36,3.09,8.55-5.72,19.57-19.68,24.61Z"/><ellipse class="n" cx="409.32" cy="462.71" rx="35.47" ry="68.78" transform="translate(-132.82 166.53) rotate(-19.86)"/><path class="q" d="M166.89,444.9c.28-19.48-4.99-58.84-55.57-36.51,0,0-14.64-19.07-36.59-10.55-21.96,8.53-22.87,27.41-22.87,27.41,0,0-18.3,8.56-8.23,29.6,0,0-14.51-2.62-31.61-2.47-3.88,3.58-7.09,8.08-9.07,13.6-5.4,15.06,.22,32.17,13.65,40.87,12.15,7.88,27.16,7.16,38.27-.33,2.57,6.15,7.33,11.72,13.88,15.5,4.9,2.83,10.16,4.26,15.26,4.47-9.83,22.78-7.46,45.68,6.6,53.8,15.88,9.17,40.63-3.99,55.29-29.38,3.28-5.67,5.77-11.48,7.49-17.18,0,.19-.01,.38-.01,.58,0,26.11,21.17,47.28,47.28,47.28,5.25,0,10.3-.87,15.02-2.45,9.01,17.35,28.89,29.41,51.97,29.41,16.05,0,30.54-5.83,40.92-15.21,9.14,9.38,21.9,15.21,36.03,15.21,15.58,0,29.5-7.08,38.73-18.21,1.21,.1,2.43,.17,3.67,.17,25.6,0,46.35-22.52,46.35-50.31,0-17.71-8.44-33.27-21.19-42.24,3.4-7,5.33-14.96,5.33-23.42,0-25.13-16.97-45.95-39.15-49.7,5.38-5.12,8.66-11.87,8.66-19.28,0-16-15.28-28.97-34.12-28.97-9.8,0-18.63,3.52-24.86,9.14-5.3-11.76-12.98-19.16-21.52-19.16-3.58,0-7.01,1.31-10.17,3.68-9.81-8.98-22.12-14.34-35.51-14.34-32,0-57.94,30.57-57.94,68.28,0,.85,.03,1.69,.05,2.54-4.48-1.44-9.23-2.22-14.15-2.22h-.09c-5.93,.01-11.52,2.85-15.18,7.51-2.9,3.69-5.37,8-6.62,12.84"/><path class="o" d="M334.48,571.92s86.12,39.76,179.68-21.83v-40.27l-45.21,16.14,2.15,15.56s-47.57,34.52-136.62,30.39Z"/><path class="o" d="M281.55,428.42s35.17-88.1,145.43-107.75l25.59,35.57-39.04,16.91-11.92-16.65s-58.27,7.67-120.07,71.91Z"/><polygon class="o" points="497.99 438.9 483.36 415.22 324.78 499.88 497.99 438.9"/></g></g></g><g id="g"><g id="h"/></g><g id="i"/><g id="j"/><g id="k"/><g id="l"/><g id="m"><g><path class="o" d="M8.48,697.78H27.34l21.25,42.96,21.16-42.96h18.86l-34.04,64.4h-12.05l-34.04-64.4Z"/><path class="o" d="M165.34,697.78v64.4h-19.32v-27.41h-34.04v27.41h-19.69v-64.4h73.04Zm-53.08,9.48v17.94h33.3v-17.94h-33.3Z"/><path class="o" d="M192.02,739.36v22.81h-19.32v-64.4h71.3v41.58h-51.98Zm-.18-32.11v22.63h32.84v-22.63h-32.84Z"/><path class="o" d="M267,762.17l-15.64-17.75v-46.64h73.04v64.4h-57.41Zm3.59-54.92v33.03l10.95,12.42h23.64v-45.45h-34.59Z"/><path class="o" d="M411.62,762.17h-22.72l-34.68-39.56h32.57v-15.36h-35.51v54.92h-19.5v-64.4h73.96v34.31h-20.42l26.31,30.08Z"/><path class="p" d="M542.99,752.7l-8.28,9.48h-64.21v-64.4h72.4l-8.19,9.48h-44.53v45.45h52.8Z"/><path class="p" d="M564.15,762.17l-15.64-17.75v-46.64h73.04v64.4h-57.4Zm3.59-54.92v33.03l10.95,12.42h23.64v-45.45h-34.59Z"/><path class="p" d="M708.77,762.17h-22.72l-34.68-39.56h32.57v-15.36h-35.51v54.92h-19.5v-64.4h73.96v34.31h-20.42l26.31,30.08Z"/><path class="p" d="M731.77,739.36v22.81h-19.32v-64.4h71.3v41.58h-51.98Zm-.18-32.11v22.63h32.84v-22.63h-32.84Z"/></g></g></svg>