<?xml version="1.0" encoding="UTF-8"?><svg xmlns="http://www.w3.org/2000/svg" viewBox="0 0 3983 792.96"><defs><style>.n{fill:#575756;}.o{fill:#e30613;}.p{fill:#878787;}.q{fill:#c6c6c6;}.r{fill:#666;}</style></defs><g id="a"/><g id="b"/><g id="c"/><g id="d"/><g id="e"/><g id="f"><g><path class="r" d="M117,561.24c.26-.17,.53-.35,.78-.51-.04-.17-.35,.09-.78,.51Z"/><g><path class="p" d="M1035.68,268.76c1.43-2.39,2.25-5.04,2.25-7.85,0-10.19-10.47-18.45-23.38-18.45s-23.38,8.26-23.38,18.45c0,1.59,.28,3.13,.76,4.6-.22,.11-.45,.21-.66,.33-4.91-17.09-15.97-29.01-28.83-29.01-8.76,0-16.69,5.53-22.41,14.46,4.94,16.61,15.52,35.45,22.79,58.91,3.94,1.66,7.76,3.45,11.46,5.36l3.98,2.06c6.35,1.64,5.69,6.14,10.47-5.01,6.15,4.03,13.97,6.46,22.5,6.46,19.79,0,35.84-13.02,35.84-29.08,0-8.39-4.4-15.92-11.4-21.23Z"/><path class="r" d="M186,337.1c-17.65-4.34-34.92-3.23-48.57,3.02-.19-.11-.37-.24-.56-.35-17.85-10.3-44.43,2.33-59.38,28.23-4.13,7.16-6.94,14.58-8.46,21.79-21.44-6.51-46.56,4.16-59.62,26.79-13.47,23.32-9.53,51.38,8.15,66.4-.75,.61-1.46,1.28-2.18,1.94,23.69-.21,43.79,3.42,43.79,3.42-13.94-29.15,11.41-41.01,11.41-41.01,0,0,1.27-26.16,31.69-37.97,30.42-11.81,50.7,14.61,50.7,14.61,11.32-5,20.97-7.73,29.24-8.74-1.32-26.35-.04-52.47,3.79-78.12Z"/></g><path class="r" d="M973.87,385.25c-4.73,9.78-10.95,19.74-18.69,29.86-2.77,57.67-18.74,113.64-47.28,164.76-2.32-.96-4.69-1.9-7.08-2.83-.65-.25-1.32-.49-1.98-.74-1.8-.68-3.61-1.36-5.44-2.03-.9-.33-1.82-.65-2.74-.97-1.62-.57-3.26-1.14-4.91-1.7-1-.34-2.01-.67-3.02-1-1.61-.53-3.23-1.05-4.87-1.57-1.04-.33-2.08-.65-3.12-.97-1.67-.51-3.36-1.01-5.06-1.51-1.02-.3-2.03-.6-3.05-.89-1.86-.53-3.74-1.05-5.63-1.56-.88-.24-1.75-.48-2.63-.72-2.72-.72-5.47-1.43-8.25-2.11-.06-.01-.11-.03-.17-.04-2.84-.7-5.71-1.37-8.6-2.03-.92-.21-1.86-.41-2.79-.62-1.98-.44-3.96-.87-5.96-1.29-1.13-.24-2.28-.47-3.42-.7-1.83-.37-3.67-.74-5.52-1.09-1.22-.23-2.44-.46-3.67-.69-1.81-.34-3.63-.66-5.46-.99-1.24-.22-2.48-.43-3.73-.64-1.88-.32-3.78-.62-5.68-.93-1.2-.19-2.39-.38-3.6-.57-2.11-.32-4.24-.63-6.37-.93-1.01-.14-2.01-.29-3.02-.43-3.06-.42-6.14-.82-9.24-1.2l.02-.09h-.09c.18-.76,.33-1.51,.51-2.26,.55-2.34,1.06-4.68,1.58-7.02,.57-2.55,1.13-5.1,1.66-7.65,.06-.3,.12-.6,.18-.9-6.8,3.1-13.77,6.2-20.9,9.27-.24,1.03-.47,2.06-.71,3.08-.28,1.19-.57,2.37-.86,3.56-.4-.04-.8-.07-1.2-.1-1.48-.14-2.97-.26-4.45-.39-1.9-.16-3.8-.32-5.7-.47-.14-.01-.28-.02-.41-.03-8.67,3.61-17.59,7.21-26.72,10.78v6.1c.18,0,.37,.01,.55,.02,1.31,.06,2.61,.11,3.91,.17,2.14,.1,4.27,.22,6.4,.34,1.18,.07,2.37,.13,3.55,.2,2.49,.15,4.96,.32,7.43,.5,.81,.06,1.63,.11,2.44,.17,3.2,.24,6.38,.5,9.55,.79-.2,.73-.39,1.47-.59,2.2-.6,2.15-1.22,4.3-1.84,6.44-.75,2.58-1.5,5.17-2.28,7.74-.65,2.14-1.32,4.27-1.99,6.4-.81,2.56-1.62,5.11-2.46,7.65-.7,2.12-1.42,4.23-2.14,6.34-.87,2.53-1.75,5.05-2.64,7.56-.75,2.09-1.5,4.17-2.27,6.25-.93,2.51-1.88,5.02-2.84,7.51-.79,2.05-1.58,4.1-2.39,6.13-1,2.5-2.01,4.99-3.04,7.48-.83,2-1.66,4.01-2.51,6-1.06,2.5-2.16,4.98-3.25,7.46-.86,1.95-1.72,3.9-2.6,5.83-1.14,2.5-2.31,4.99-3.48,7.47-.89,1.88-1.76,3.76-2.67,5.62-1.23,2.53-2.5,5.04-3.76,7.55-.9,1.78-1.78,3.56-2.69,5.33-1.35,2.61-2.74,5.2-4.13,7.79-.87,1.63-1.73,3.26-2.61,4.88-1.56,2.84-3.16,5.65-4.77,8.46-.76,1.32-1.49,2.66-2.26,3.98-2.28,3.92-4.61,7.81-6.98,11.65-.11,.18-.22,.37-.33,.55-2.49,4.04-5.03,8.03-7.62,11.98-.76,1.16-1.55,2.3-2.32,3.46-1.83,2.76-3.67,5.51-5.55,8.23-1,1.45-2.04,2.87-3.06,4.31-1.68,2.38-3.36,4.76-5.07,7.1-1.13,1.54-2.28,3.05-3.43,4.57-1.31,1.75-2.63,3.5-3.96,5.22-10.43,2.37-20.97,4.32-31.46,5.8l-10.99-94.46c-6.01,1.37-12.06,2.5-18.15,3.47l10.83,93.12c-21.56,1.98-43.28,2.13-64.73,.43-1.32-1.36-2.63-2.73-3.94-4.11-1.25-1.32-2.51-2.62-3.75-3.95-1.79-1.91-3.54-3.85-5.3-5.79-1.13-1.25-2.28-2.48-3.4-3.74-1.93-2.16-3.83-4.36-5.72-6.55-.92-1.07-1.86-2.12-2.78-3.2-2.56-3.01-5.08-6.05-7.59-9.11-.23-.29-.48-.57-.71-.85-2.75-3.39-5.47-6.81-8.15-10.26-.65-.84-1.29-1.7-1.93-2.55-2-2.6-3.99-5.21-5.94-7.86-.92-1.24-1.82-2.51-2.73-3.76-1.65-2.27-3.31-4.54-4.93-6.84-1-1.42-1.99-2.87-2.98-4.3-1.5-2.16-3-4.33-4.47-6.51-1.03-1.53-2.04-3.08-3.06-4.62-1.4-2.12-2.8-4.25-4.18-6.39-1.03-1.61-2.05-3.24-3.07-4.86-1.33-2.11-2.65-4.22-3.95-6.35-.55-.91-1.1-1.82-1.65-2.73-6.91-2.41-10.9-4.21-11.4-4.45l-16.99-7.84c1.79,3.24,3.6,6.47,5.43,9.67,.74,1.29,1.5,2.56,2.24,3.84,1.47,2.52,2.95,5.04,4.46,7.53,.86,1.43,1.73,2.85,2.6,4.27,1.44,2.35,2.9,4.69,4.37,7.01,.9,1.42,1.8,2.84,2.7,4.25,1.53,2.38,3.08,4.74,4.64,7.09,.85,1.28,1.7,2.58,2.56,3.85,1.91,2.83,3.84,5.63,5.79,8.43,.53,.75,1.04,1.52,1.57,2.27,2.48,3.52,4.99,7,7.54,10.45,.73,.99,1.47,1.95,2.2,2.93,1.85,2.47,3.7,4.93,5.58,7.37,.97,1.26,1.96,2.51,2.94,3.77,1.68,2.15,3.38,4.28,5.09,6.4,1.05,1.3,2.11,2.6,3.17,3.89,1.71,2.09,3.44,4.15,5.18,6.21,1.05,1.24,2.09,2.48,3.14,3.71,1.91,2.22,3.84,4.42,5.77,6.61,.9,1.01,1.78,2.04,2.68,3.04,.21,.23,.41,.47,.61,.7-78.2-12.24-150.8-48.96-207.48-105.18,.76-.54,1.52-1.08,2.3-1.62,.71-.49,1.41-.98,2.13-1.47,1.42-.97,2.87-1.93,4.32-2.89,.58-.38,1.14-.76,1.72-1.14,2.06-1.34,4.15-2.67,6.28-4,.19-.12,.39-.24,.58-.35,1.93-1.2,3.89-2.39,5.87-3.57,.69-.41,1.4-.82,2.1-1.23,1.51-.89,3.03-1.77,4.57-2.65,.82-.47,1.65-.93,2.48-1.4,1.46-.82,2.94-1.64,4.42-2.45,.86-.47,1.72-.94,2.59-1.4,1.53-.82,3.08-1.64,4.63-2.45,.83-.43,1.65-.86,2.48-1.29,1.77-.91,3.57-1.82,5.38-2.72,.63-.31,1.24-.63,1.87-.94,2.47-1.22,4.97-2.43,7.5-3.63,.22-.1,.44-.2,.65-.3,2.29-1.08,4.6-2.15,6.94-3.21,.78-.36,1.58-.71,2.37-1.06,1.79-.8,3.59-1.6,5.4-2.39,.93-.4,1.86-.8,2.8-1.2,1.72-.74,3.46-1.47,5.2-2.2,.96-.4,1.92-.8,2.89-1.2,1.8-.74,3.6-1.47,5.42-2.19,.91-.36,1.81-.73,2.72-1.09,2.09-.82,4.2-1.63,6.32-2.44,.64-.24,1.27-.49,1.92-.73,.19-.07,.39-.14,.58-.21,.46,1,.93,1.99,1.39,2.98,.73,1.58,1.47,3.16,2.21,4.73,1.21,2.56,2.43,5.11,3.67,7.65,.73,1.51,1.46,3.02,2.21,4.52,.58,1.18,1.18,2.34,1.77,3.51l21.21,.98c-.76-1.45-1.52-2.9-2.27-4.36-1.12-2.17-2.21-4.35-3.31-6.54-.92-1.85-1.85-3.7-2.76-5.56-1.08-2.21-2.14-4.44-3.19-6.66-.88-1.87-1.77-3.73-2.64-5.61-.29-.63-.57-1.26-.86-1.89,.1-.03,.19-.07,.29-.1,.64-.22,1.3-.43,1.94-.65,2.53-.85,5.06-1.7,7.62-2.53,1.13-.37,2.28-.73,3.42-1.09,2.09-.67,4.18-1.33,6.29-1.98,1.31-.4,2.62-.8,3.93-1.19,1.97-.6,3.94-1.19,5.93-1.77,1.39-.41,2.78-.81,4.17-1.21,1.95-.56,3.9-1.11,5.87-1.65,1.41-.39,2.83-.78,4.24-1.17,1.99-.54,3.98-1.07,5.98-1.59,1.4-.37,2.8-.74,4.21-1.1,2.09-.54,4.19-1.06,6.3-1.58,1.32-.33,2.65-.66,3.98-.98,2.39-.58,4.8-1.14,7.21-1.7,1.05-.24,2.09-.5,3.14-.74,3.45-.79,6.91-1.55,10.39-2.3,.76-.16,1.54-.32,2.3-.48,2.74-.58,5.48-1.15,8.24-1.7,1.29-.26,2.59-.51,3.89-.76,2.24-.44,4.49-.88,6.74-1.3,.76-.14,1.52-.28,2.27-.42-4.46-4.86-8.75-10.33-12.79-16.32-1.34,.26-2.67,.52-4.01,.79-2.52,.51-5.02,1.03-7.53,1.56-1.1,.23-2.21,.46-3.32,.69-3.6,.77-7.19,1.57-10.76,2.38-.32,.07-.64,.15-.96,.23-3.24,.74-6.46,1.51-9.68,2.28-1.2,.29-2.39,.6-3.59,.89-2.33,.58-4.65,1.15-6.96,1.75-1.38,.36-2.75,.72-4.13,1.08-2.11,.56-4.22,1.11-6.32,1.68-1.44,.39-2.87,.79-4.31,1.19-2.02,.56-4.03,1.13-6.03,1.7-1.46,.42-2.91,.84-4.36,1.27-1.97,.58-3.93,1.16-5.88,1.75-1.44,.44-2.88,.88-4.31,1.32-1.96,.61-3.91,1.22-5.85,1.84-1.39,.44-2.78,.89-4.17,1.34-2,.65-3.99,1.32-5.97,1.98-1.3,.44-2.6,.87-3.89,1.31-.34,.12-.69,.23-1.03,.35-.27-.64-.56-1.28-.83-1.93-.75-1.77-1.48-3.55-2.21-5.33-.84-2.04-1.67-4.07-2.49-6.12-.72-1.8-1.42-3.6-2.12-5.4-.79-2.04-1.58-4.09-2.36-6.14-.69-1.82-1.36-3.64-2.03-5.46-.76-2.06-1.51-4.12-2.24-6.19-.65-1.83-1.3-3.67-1.93-5.5-.72-2.07-1.43-4.15-2.13-6.23-.62-1.84-1.23-3.69-1.84-5.54-.68-2.09-1.35-4.19-2.02-6.29-.58-1.85-1.16-3.7-1.73-5.56-.65-2.12-1.28-4.24-1.91-6.36-.55-1.86-1.1-3.72-1.63-5.59-.61-2.14-1.21-4.28-1.8-6.43-.51-1.86-1.03-3.73-1.52-5.6-.58-2.17-1.13-4.34-1.69-6.51-.48-1.86-.96-3.73-1.42-5.59-.54-2.2-1.06-4.4-1.58-6.61-.44-1.86-.88-3.71-1.31-5.57-.08-.34-.15-.68-.22-1.01l-15.21,15.81c.13,.52,.25,1.05,.38,1.57,.48,1.97,.99,3.93,1.49,5.89,.56,2.17,1.11,4.34,1.69,6.51,.52,1.97,1.06,3.93,1.6,5.89,.59,2.15,1.19,4.29,1.8,6.43,.56,1.96,1.13,3.91,1.71,5.87,.63,2.13,1.26,4.25,1.91,6.37,.6,1.95,1.2,3.9,1.81,5.85,.66,2.11,1.34,4.21,2.02,6.3,.63,1.94,1.27,3.88,1.92,5.81,.7,2.09,1.42,4.18,2.14,6.27,.66,1.92,1.33,3.84,2.01,5.75,.74,2.09,1.5,4.17,2.26,6.24,.7,1.9,1.39,3.79,2.1,5.68,.79,2.09,1.59,4.16,2.4,6.24,.72,1.86,1.45,3.73,2.19,5.59,.83,2.09,1.69,4.17,2.54,6.24,.75,1.83,1.49,3.66,2.26,5.48,.19,.46,.38,.93,.58,1.4l-.07,.02,.03,.07c-.48,.18-.95,.37-1.44,.55-2.34,.89-4.68,1.79-6.99,2.7-1.1,.43-2.18,.87-3.27,1.31-1.73,.69-3.45,1.38-5.16,2.09-1.18,.49-2.35,.98-3.53,1.47-1.6,.67-3.19,1.34-4.77,2.02-1.19,.51-2.37,1.03-3.56,1.54-1.56,.68-3.1,1.37-4.64,2.06-1.15,.52-2.31,1.04-3.45,1.56-1.58,.72-3.15,1.45-4.71,2.18-1.06,.5-2.13,.99-3.19,1.5-1.75,.83-3.47,1.68-5.2,2.52-.84,.41-1.69,.82-2.53,1.23-2.52,1.25-5.01,2.51-7.47,3.79-.59,.3-1.16,.62-1.75,.92-1.89,.99-3.78,1.98-5.63,2.99-.9,.49-1.79,.98-2.69,1.47-1.52,.83-3.03,1.67-4.53,2.51-.96,.54-1.91,1.09-2.86,1.64-1.4,.81-2.8,1.61-4.18,2.43-.96,.56-1.91,1.13-2.86,1.7-1.36,.82-2.71,1.64-4.05,2.46-.91,.56-1.82,1.12-2.72,1.69-1.38,.87-2.75,1.74-4.1,2.62-.81,.52-1.64,1.05-2.44,1.58-1.6,1.05-3.16,2.1-4.72,3.16-.53,.36-1.08,.72-1.6,1.08-1.98,1.36-3.92,2.72-5.83,4.1-53.7-58.71-86.89-131.46-96.14-210.93-9.52-81.84,7.21-162.26,48.41-233.1,1.94,.77,3.9,1.53,5.88,2.28,.19,.07,.38,.14,.57,.21,1.96,.74,3.94,1.46,5.93,2.17,.75,.27,1.51,.53,2.26,.79,1.46,.51,2.92,1.02,4.39,1.51,.87,.29,1.75,.58,2.63,.87,1.39,.46,2.79,.91,4.2,1.35,.92,.29,1.84,.58,2.76,.86,1.41,.44,2.83,.86,4.26,1.29,.92,.27,1.83,.54,2.76,.81,1.51,.44,3.04,.87,4.57,1.29,.85,.24,1.69,.47,2.54,.71,1.89,.51,3.8,1.01,5.72,1.51,.5,.13,1,.27,1.51,.39,2.42,.62,4.87,1.22,7.34,1.8,.71,.17,1.43,.33,2.14,.5,1.77,.41,3.55,.82,5.34,1.22,.96,.21,1.92,.42,2.88,.62,1.58,.34,3.16,.68,4.76,1.01,1.04,.21,2.08,.42,3.12,.63,1.55,.31,3.11,.62,4.68,.91,1.06,.2,2.13,.41,3.2,.6,1.61,.3,3.22,.59,4.85,.87,1.03,.18,2.06,.37,3.1,.54,1.81,.31,3.63,.6,5.45,.9,.87,.14,1.72,.28,2.59,.42,2.61,.41,5.24,.8,7.88,1.18v.07h.05c-.03,.28-.06,.56-.09,.84-.18,1.48-.34,2.97-.51,4.45-.23,2.05-.47,4.1-.68,6.15-.16,1.54-.31,3.09-.46,4.64-.19,2-.39,3.99-.57,5.99-.14,1.59-.27,3.17-.4,4.76-.16,1.97-.32,3.94-.47,5.91-.12,1.61-.22,3.22-.33,4.82-.13,1.96-.26,3.92-.37,5.88-.09,1.62-.18,3.23-.26,4.85-.1,1.95-.19,3.91-.28,5.87-.07,1.63-.13,3.27-.19,4.91-.07,1.94-.13,3.89-.18,5.83-.04,1.64-.08,3.29-.12,4.93-.04,1.95-.07,3.9-.09,5.84-.02,1.65-.03,3.29-.04,4.94,0,1.95,0,3.9,0,5.85,0,1.65,.01,3.29,.03,4.94,.02,1.96,.05,3.92,.09,5.88,.03,1.64,.06,3.28,.1,4.92,.05,1.98,.12,3.96,.18,5.94,.06,1.62,.11,3.25,.17,4.87,.08,2.01,.18,4.03,.28,6.04,.08,1.59,.15,3.18,.24,4.77,.12,2.07,.25,4.14,.39,6.22,.1,1.54,.19,3.07,.3,4.61,.15,2.17,.33,4.34,.51,6.51,.12,1.44,.22,2.88,.34,4.32,.21,2.4,.44,4.8,.67,7.2,.12,1.21,.22,2.42,.34,3.62,.37,3.61,.76,7.22,1.18,10.83,.5,4.31,1.04,8.6,1.62,12.89,.19,1.44,.41,2.88,.62,4.31,.4,2.84,.79,5.68,1.23,8.51,.26,1.73,.55,3.45,.83,5.17,.41,2.53,.8,5.07,1.24,7.59,.31,1.84,.66,3.67,.98,5.51,.43,2.4,.85,4.79,1.31,7.18,.36,1.9,.74,3.79,1.12,5.69,.35,1.76,.7,3.51,1.06,5.27l6.82-17.08c.2-.51,2.18-5.38,6.31-13.15-.21-1.31-.43-2.62-.64-3.93-.27-1.66-.55-3.32-.8-4.98-.42-2.76-.81-5.53-1.2-8.3-.2-1.41-.41-2.81-.6-4.23-.56-4.18-1.09-8.38-1.58-12.58-.41-3.52-.79-7.03-1.15-10.55-.12-1.17-.22-2.33-.33-3.5-.23-2.35-.45-4.7-.66-7.05-.12-1.4-.22-2.81-.34-4.21-.17-2.11-.34-4.22-.49-6.32-.11-1.51-.2-3.01-.29-4.52-.13-2.01-.26-4.02-.37-6.02-.09-1.55-.16-3.1-.23-4.64-.1-1.96-.19-3.93-.27-5.89-.06-1.58-.12-3.16-.17-4.74-.07-1.93-.13-3.85-.18-5.78-.04-1.61-.07-3.22-.1-4.82-.04-1.89-.07-3.79-.09-5.68-.02-1.62-.02-3.25-.03-4.87,0-1.88,0-3.75,0-5.63,0-1.63,.02-3.26,.04-4.89,.02-1.86,.05-3.73,.09-5.59,.03-1.64,.07-3.28,.11-4.92,.05-1.85,.11-3.69,.17-5.53,.06-1.65,.12-3.3,.19-4.94,.08-1.83,.17-3.67,.26-5.5,.08-1.65,.17-3.3,.26-4.94,.11-1.83,.22-3.65,.34-5.47,.11-1.65,.22-3.3,.34-4.95,.13-1.81,.28-3.62,.43-5.43,.13-1.65,.27-3.31,.41-4.96,.16-1.81,.34-3.61,.51-5.41,.16-1.65,.31-3.3,.49-4.94,.19-1.8,.39-3.59,.6-5.39,.19-1.65,.36-3.3,.56-4.95,.03-.23,.06-.46,.09-.68,.34,.04,.69,.07,1.03,.11,1.45,.16,2.91,.31,4.37,.46,2.14,.23,4.29,.45,6.45,.66,1.55,.15,3.1,.28,4.65,.42,2.09,.19,4.19,.37,6.3,.54,1.6,.13,3.21,.25,4.83,.37,2.08,.15,4.17,.3,6.27,.43,1.63,.1,3.26,.21,4.9,.3,2.11,.12,4.23,.23,6.35,.34,1.63,.08,3.26,.16,4.89,.23,2.18,.09,4.37,.17,6.56,.24,1.59,.05,3.17,.11,4.77,.16,2.33,.06,4.68,.11,7.02,.15,1.46,.03,2.92,.06,4.38,.08,2.83,.04,5.68,.05,8.52,.06,.99,0,1.97,.02,2.96,.02,3.82,0,7.66-.04,11.5-.09,1.11-.02,2.22-.05,3.33-.07,2.76-.05,5.53-.11,8.3-.19,1.49-.04,2.99-.1,4.48-.15,2.41-.08,4.81-.17,7.23-.27,1.61-.07,3.22-.15,4.83-.23,2.31-.11,4.61-.23,6.92-.36,1.67-.09,3.34-.2,5.01-.3,2.27-.14,4.54-.29,6.81-.45,1.68-.12,3.37-.24,5.05-.37,2.28-.17,4.56-.36,6.84-.55,1.67-.14,3.35-.28,5.02-.43,2.33-.21,4.66-.43,6.98-.66,1.62-.16,3.24-.31,4.86-.48,.58-.06,1.16-.11,1.74-.17v.05l6.85,58.84c5.83-1.64,11.84-3.15,18.02-4.51l-6.57-56.47v-.05c.79-.1,1.57-.22,2.37-.32,1.78-.23,3.55-.47,5.33-.71,2.52-.34,5.03-.69,7.54-1.06,1.81-.26,3.61-.53,5.41-.8,2.48-.37,4.95-.76,7.42-1.15,1.8-.29,3.6-.58,5.4-.88,2.47-.41,4.94-.84,7.4-1.27,1.76-.31,3.53-.62,5.29-.94,2.51-.46,5.02-.93,7.52-1.41,1.68-.32,3.37-.64,5.05-.97,2.67-.53,5.32-1.08,7.97-1.63,1.49-.31,2.99-.61,4.47-.92,3.37-.72,6.71-1.46,10.05-2.22,.75-.17,1.51-.33,2.26-.5,4.07-.93,8.11-1.9,12.13-2.88,1.26-.31,2.5-.63,3.75-.95,2.77-.7,5.55-1.39,8.3-2.11,1.56-.41,3.1-.83,4.65-1.25,2.42-.65,4.84-1.3,7.25-1.98,1.65-.46,3.29-.94,4.93-1.41,2.29-.66,4.57-1.31,6.83-1.99,1.67-.5,3.33-1,4.98-1.51,2.22-.68,4.44-1.36,6.65-2.06,1.65-.52,3.29-1.04,4.92-1.57,2.2-.71,4.39-1.43,6.57-2.16,1.6-.54,3.2-1.07,4.79-1.62,2.21-.76,4.4-1.53,6.58-2.3,1.52-.54,3.05-1.08,4.57-1.63,2.28-.83,4.54-1.67,6.8-2.52,1.38-.52,2.77-1.03,4.13-1.55,.37-.14,.75-.28,1.12-.42,.09,.28,.18,.57,.27,.85,1.51,4.79,2.98,9.61,4.38,14.44,0,.02,.01,.05,.02,.07,1.41,4.85,2.75,9.72,4.05,14.61,.11,.42,.23,.84,.34,1.27,1.23,4.67,2.41,9.37,3.54,14.07,.15,.63,.31,1.26,.46,1.89,1.09,4.6,2.13,9.21,3.13,13.84,.16,.72,.31,1.45,.47,2.17,.98,4.59,1.9,9.2,2.78,13.82,.14,.73,.28,1.47,.41,2.2,.87,4.65,1.7,9.32,2.48,14,.11,.65,.21,1.3,.31,1.95,.78,4.79,1.52,9.6,2.2,14.41,.06,.43,.12,.86,.18,1.3,.4,2.85,.74,5.72,1.1,8.58,6.03-1.26,12.08-2.42,18.13-3.49-.18-1.42-.37-2.84-.55-4.25l-3.08-1.77,2.82-.24c-.07-.54-.13-1.08-.21-1.61-.06-.4-.11-.8-.16-1.2-.71-5.03-1.48-10.05-2.3-15.06-.1-.63-.2-1.26-.31-1.89-.81-4.86-1.67-9.71-2.58-14.55-.14-.75-.28-1.51-.43-2.26-.91-4.77-1.88-9.52-2.89-14.26-.17-.8-.34-1.6-.52-2.4-1.02-4.72-2.09-9.43-3.21-14.12-.19-.78-.37-1.55-.56-2.33-1.15-4.73-2.34-9.45-3.58-14.15-.18-.68-.36-1.35-.55-2.03-1.29-4.81-2.62-9.6-4.01-14.37-.14-.48-.28-.95-.42-1.43-1.46-4.98-2.97-9.93-4.54-14.87v-.04l.04-.02-.02-.06c.22-.09,.43-.19,.64-.28,3.46-1.46,6.88-2.95,10.25-4.45,.47-.21,.95-.42,1.42-.63,3.42-1.53,6.78-3.09,10.1-4.66,.65-.31,1.3-.62,1.95-.93,3.29-1.58,6.54-3.17,9.74-4.79,.48-.24,.95-.49,1.43-.73,3.15-1.61,6.26-3.23,9.31-4.87,.23-.12,.47-.25,.7-.37,3.14-1.69,6.21-3.41,9.24-5.15,.56-.32,1.12-.64,1.67-.96,2.94-1.7,5.83-3.41,8.67-5.15,.51-.31,1.01-.63,1.52-.94,2.92-1.8,5.81-3.62,8.63-5.46,.08-.05,.17-.11,.25-.17,2.76-1.81,5.46-3.64,8.11-5.49,.28-.2,.58-.39,.87-.59,44.89,47.37,76.04,104.23,91.69,166.75,7.23,2.16,14.14,4.68,20.71,7.56-15.13-69.57-48.34-132.85-97.4-185.24l.13-.09-7.47-7.57-5.6-5.68-.11,.08c-46.85-45.61-104.34-79.06-166.98-97.11l-.05-.07-3.29-.92-23.95-6.67,.64,.96c-39.17-8.39-79.21-10.76-119.46-7v-.11l-9.16,1.06-9.15,1.06v.12c-28.1,3.93-55.58,10.81-82.04,20.53l.47-1-22.47,9.83-3.17,1.39-.02,.05c-70.91,31.78-130.22,83.1-172.08,148.9l-.08-.03-4.15,6.81-5.53,9.09,.14,.06c-24.72,43.09-40.84,89.5-48.02,137.6-3.83,25.65-5.11,51.77-3.79,78.12,.44,8.88,1.17,17.79,2.21,26.71,9.63,82.75,44.03,158.56,99.66,219.9l-.12,.09,7.11,7.45,5.69,5.96,.08-.06c65.15,65.53,150.77,106.23,242.34,115.14l.04,.04,3.38,.3h.03l24.9,2.2-.83-.85c15.92,.43,31.9-.08,47.81-1.56v.12l9.16-1.06,9.15-1.06-.02-.14c4.02-.56,8.05-1.19,12.08-1.88l-.8,1.02,25.5-6.04h.02l3.13-.75,.04-.05c100.46-24.68,188.35-88.99,242.72-177.42l.1,.04,4.17-7.11,5.21-8.89-.14-.06c34.41-62.27,51.11-131.33,49.03-202.03ZM839.2,123.46c-.14,.1-.27,.19-.41,.29-2.4,1.64-4.84,3.26-7.33,4.87-.52,.34-1.05,.68-1.58,1.01-5.16,3.3-10.51,6.54-16.06,9.71-.56,.32-1.11,.64-1.67,.95-2.72,1.54-5.48,3.07-8.29,4.58-.48,.26-.97,.51-1.46,.77-2.64,1.41-5.31,2.8-8.03,4.18-.39,.2-.78,.4-1.17,.6-2.93,1.48-5.91,2.93-8.92,4.37-.65,.31-1.3,.62-1.96,.93-3.05,1.45-6.14,2.88-9.28,4.29-.27,.12-.55,.24-.83,.37-2.97,1.33-5.98,2.64-9.02,3.93-.4,.17-.79,.34-1.19,.51-.07-.21-.15-.42-.23-.64-.26-.73-.52-1.45-.78-2.18-.87-2.46-1.75-4.91-2.65-7.35-.38-1.05-.78-2.09-1.17-3.14-.82-2.19-1.64-4.37-2.48-6.54-.4-1.03-.79-2.06-1.19-3.08-.98-2.5-1.97-4.99-2.97-7.47-.25-.63-.5-1.26-.76-1.89-1.26-3.08-2.54-6.15-3.84-9.2-.35-.82-.71-1.63-1.06-2.45-.97-2.26-1.96-4.52-2.95-6.76-.46-1.05-.93-2.09-1.4-3.14-.94-2.08-1.89-4.16-2.84-6.23-.46-1-.92-2-1.39-3-1.18-2.51-2.37-5-3.57-7.49-.24-.5-.47-1-.72-1.49-1.45-2.97-2.92-5.92-4.4-8.85-.42-.84-.86-1.67-1.28-2.5-1.09-2.13-2.19-4.25-3.3-6.37-.53-1-1.06-2-1.59-3-1.08-2.03-2.18-4.06-3.29-6.08-.5-.91-.99-1.82-1.5-2.73-1.45-2.62-2.92-5.24-4.41-7.84-.15-.25-.29-.51-.43-.76-1.65-2.87-3.32-5.72-5.01-8.56-.45-.76-.91-1.52-1.37-2.28-.82-1.36-1.63-2.73-2.46-4.08,50.68,17.83,97.23,46.42,136.22,83.74ZM675.77,31.29c.68,1.03,1.36,2.06,2.03,3.1,.85,1.3,1.7,2.61,2.54,3.92,1,1.56,1.99,3.13,2.97,4.71,.8,1.27,1.6,2.53,2.39,3.81,1.04,1.68,2.06,3.38,3.08,5.07,.71,1.18,1.44,2.36,2.14,3.54,1.17,1.97,2.32,3.96,3.48,5.94,.54,.93,1.09,1.85,1.62,2.78,1.67,2.91,3.31,5.84,4.94,8.78,.41,.75,.81,1.5,1.22,2.25,1.21,2.22,2.42,4.45,3.61,6.69,.59,1.11,1.16,2.24,1.75,3.35,.99,1.89,1.98,3.78,2.95,5.69,.63,1.23,1.24,2.48,1.86,3.72,.9,1.8,1.81,3.6,2.69,5.41,.64,1.3,1.26,2.61,1.89,3.91,.85,1.77,1.7,3.53,2.53,5.31,.63,1.34,1.25,2.68,1.87,4.03,.81,1.76,1.62,3.53,2.42,5.3,.61,1.36,1.22,2.73,1.82,4.09,.78,1.77,1.56,3.55,2.33,5.33,.59,1.38,1.18,2.75,1.76,4.13,.76,1.79,1.5,3.59,2.24,5.38,.57,1.38,1.14,2.76,1.7,4.15,.73,1.82,1.46,3.64,2.17,5.47,.54,1.38,1.09,2.76,1.62,4.15,.72,1.86,1.42,3.72,2.12,5.58,.51,1.37,1.03,2.73,1.53,4.1,.71,1.92,1.4,3.86,2.09,5.79,.47,1.32,.95,2.65,1.42,3.98,.12,.33,.23,.67,.34,1-.52,.2-1.03,.41-1.55,.61-1.42,.55-2.86,1.08-4.29,1.62-2.12,.8-4.25,1.59-6.39,2.37-1.51,.55-3.03,1.09-4.55,1.63-2.11,.75-4.22,1.49-6.35,2.22-1.56,.54-3.13,1.07-4.7,1.59-2.13,.71-4.26,1.42-6.41,2.11-1.59,.52-3.19,1.03-4.79,1.54-2.17,.69-4.36,1.36-6.55,2.03-1.59,.49-3.19,.97-4.79,1.45-2.27,.67-4.55,1.33-6.83,1.99-1.55,.44-3.1,.9-4.66,1.33-2.46,.69-4.93,1.35-7.41,2.02-1.41,.38-2.81,.77-4.23,1.14-3.14,.82-6.3,1.62-9.47,2.41-.77,.19-1.53,.39-2.3,.58-3.94,.97-7.89,1.91-11.87,2.82-1.23,.28-2.48,.55-3.71,.83-2.77,.62-5.53,1.24-8.32,1.83-1.59,.34-3.18,.66-4.77,.99-2.46,.51-4.92,1.02-7.39,1.51-1.72,.34-3.44,.66-5.16,.99-2.37,.45-4.74,.9-7.12,1.33-1.78,.32-3.57,.64-5.36,.95-2.34,.41-4.69,.82-7.04,1.21-1.81,.3-3.63,.6-5.45,.89-2.35,.38-4.7,.74-7.06,1.1-1.83,.28-3.66,.55-5.49,.82-2.38,.34-4.76,.67-7.14,1-1.82,.25-3.64,.5-5.46,.73-.7,.09-1.41,.17-2.12,.26l-22.76-195.61c44.73-4.13,89.2-.35,132.38,11.25ZM407.84,102.15c.3-.87,.59-1.74,.9-2.61,1.28-3.58,2.58-7.15,3.92-10.71,.3-.79,.61-1.58,.92-2.37,1.05-2.75,2.1-5.49,3.19-8.21,.51-1.28,1.04-2.55,1.56-3.83,.9-2.22,1.81-4.44,2.74-6.65,.6-1.42,1.22-2.84,1.83-4.25,.88-2.05,1.76-4.1,2.66-6.13,.66-1.48,1.33-2.95,2-4.43,.64-1.41,1.28-2.82,1.93-4.22,30.48-13,62.58-21.92,95.59-26.57l22.76,195.61c-.53,.06-1.06,.12-1.59,.17-1.56,.16-3.11,.31-4.67,.46-2.3,.23-4.6,.45-6.9,.65-1.62,.15-3.23,.28-4.84,.42-2.25,.19-4.5,.37-6.74,.54-1.63,.12-3.25,.24-4.88,.36-2.24,.16-4.47,.3-6.71,.44-1.61,.1-3.23,.2-4.84,.29-2.27,.13-4.53,.24-6.8,.35-1.56,.08-3.13,.16-4.69,.22-2.38,.1-4.76,.19-7.14,.27-1.42,.05-2.85,.11-4.27,.15-2.79,.08-5.58,.14-8.36,.19-1,.02-2,.05-2.99,.06-3.76,.06-7.51,.09-11.25,.09-.96,0-1.91-.01-2.87-.01-2.78,0-5.57-.02-8.34-.05-1.39-.02-2.78-.05-4.16-.08-2.33-.04-4.66-.09-6.97-.15-1.51-.04-3.01-.1-4.52-.15-2.19-.07-4.37-.15-6.54-.24-1.55-.07-3.09-.14-4.63-.21-2.13-.1-4.25-.21-6.36-.33-1.54-.09-3.08-.18-4.61-.28-2.12-.14-4.23-.28-6.34-.44-1.49-.11-2.98-.22-4.47-.34-2.16-.17-4.31-.36-6.45-.55-1.41-.13-2.82-.25-4.22-.38-2.29-.22-4.56-.46-6.84-.7-1.23-.13-2.47-.25-3.69-.39-.3-.03-.59-.07-.89-.11,.07-.46,.13-.92,.2-1.38,.26-1.73,.54-3.44,.82-5.17,.34-2.14,.69-4.29,1.05-6.43,.3-1.73,.61-3.46,.91-5.19,.38-2.11,.76-4.22,1.15-6.32,.33-1.74,.67-3.47,1.01-5.2,.41-2.09,.83-4.18,1.26-6.26,.36-1.72,.72-3.44,1.09-5.15,.45-2.08,.91-4.16,1.38-6.23,.39-1.7,.78-3.4,1.17-5.1,.49-2.08,.99-4.15,1.5-6.22,.41-1.68,.82-3.35,1.25-5.02,.53-2.09,1.08-4.17,1.63-6.25,.43-1.63,.86-3.27,1.31-4.89,.58-2.12,1.18-4.23,1.78-6.34,.45-1.57,.89-3.15,1.35-4.72,.64-2.18,1.31-4.35,1.97-6.52,.45-1.48,.9-2.97,1.36-4.44,.73-2.32,1.48-4.62,2.24-6.92,.43-1.32,.85-2.64,1.29-3.96,.92-2.74,1.86-5.46,2.82-8.17Zm-3.8-41.42c-1.35,3.21-2.68,6.44-3.97,9.69-.35,.88-.69,1.76-1.04,2.64-1.02,2.58-2.03,5.17-3.02,7.77-.48,1.25-.94,2.51-1.41,3.76-.85,2.28-1.69,4.56-2.51,6.85-.47,1.31-.94,2.63-1.41,3.95-.82,2.34-1.63,4.69-2.43,7.04-.41,1.21-.83,2.42-1.23,3.63-1.01,3.04-1.99,6.09-2.96,9.16-.16,.51-.33,1.01-.49,1.52-1.11,3.55-2.18,7.12-3.23,10.71-.33,1.12-.64,2.24-.96,3.36-.72,2.51-1.43,5.03-2.12,7.55-.37,1.34-.72,2.68-1.08,4.02-.63,2.37-1.25,4.74-1.86,7.12-.34,1.34-.69,2.69-1.02,4.04-.64,2.56-1.25,5.13-1.86,7.7-.27,1.13-.54,2.26-.8,3.39-.84,3.68-1.66,7.37-2.45,11.07-.1,.49-.2,.98-.3,1.47-.68,3.23-1.33,6.48-1.96,9.73-.24,1.25-.47,2.5-.7,3.75-.48,2.53-.94,5.07-1.39,7.62-.24,1.38-.48,2.76-.71,4.14-.42,2.5-.83,5.02-1.23,7.53-.21,1.32-.42,2.64-.62,3.96-.09,.62-.2,1.23-.29,1.84-2.52-.36-5.02-.73-7.5-1.12-.67-.1-1.33-.22-2-.32-1.9-.3-3.79-.61-5.67-.93-.89-.15-1.78-.31-2.66-.46-1.66-.29-3.3-.58-4.94-.89-.93-.17-1.85-.34-2.77-.52-1.64-.31-3.27-.63-4.89-.95-.85-.17-1.7-.34-2.54-.51-1.91-.39-3.79-.79-5.67-1.2-.53-.11-1.07-.22-1.59-.34-2.39-.53-4.76-1.07-7.11-1.62-.6-.14-1.2-.29-1.8-.44-1.75-.42-3.49-.84-5.21-1.28-.82-.21-1.63-.42-2.44-.63-1.51-.39-3.01-.78-4.5-1.18-.85-.23-1.69-.46-2.53-.69-1.48-.41-2.96-.83-4.42-1.25-.78-.22-1.56-.45-2.34-.67-1.69-.5-3.36-1-5.02-1.51-.52-.16-1.05-.32-1.56-.48-2.17-.68-4.32-1.37-6.44-2.07-.49-.16-.97-.33-1.46-.5-1.63-.55-3.25-1.1-4.85-1.67-.72-.25-1.43-.51-2.14-.77-1.38-.49-2.74-.99-4.1-1.5-.74-.28-1.49-.56-2.22-.84-.55-.21-1.1-.43-1.65-.64,35.93-55.44,84.93-99.91,143.1-130Zm286.67,695.88c.3-.42,.58-.86,.88-1.28,.94-1.34,1.85-2.7,2.78-4.05,1.71-2.5,3.42-5.01,5.09-7.55,1-1.52,2-3.05,2.99-4.59,1.58-2.44,3.14-4.89,4.68-7.36,.98-1.57,1.96-3.14,2.93-4.72,1.56-2.54,3.08-5.11,4.6-7.68,.89-1.51,1.78-3,2.66-4.52,1.72-2.97,3.39-5.96,5.06-8.97,.63-1.14,1.28-2.26,1.9-3.4,2.26-4.14,4.48-8.31,6.64-12.52,.51-.99,1-2,1.51-3,1.65-3.25,3.28-6.51,4.88-9.79,.76-1.56,1.49-3.13,2.23-4.69,1.32-2.77,2.62-5.55,3.9-8.35,.78-1.71,1.55-3.43,2.31-5.15,1.21-2.72,2.4-5.45,3.57-8.19,.74-1.73,1.48-3.47,2.21-5.21,1.19-2.85,2.35-5.72,3.5-8.6,.65-1.62,1.3-3.24,1.94-4.86,1.33-3.42,2.62-6.85,3.89-10.3,.4-1.09,.83-2.18,1.22-3.27,1.65-4.54,3.24-9.11,4.79-13.7,.39-1.16,.75-2.32,1.14-3.48,1.14-3.46,2.27-6.92,3.35-10.41,.52-1.67,1.02-3.35,1.52-5.03,.91-3.01,1.8-6.03,2.67-9.06,.52-1.81,1.02-3.62,1.52-5.43,.4-1.44,.82-2.86,1.2-4.3,.38,.04,.77,.08,1.15,.13,1.06,.13,2.1,.26,3.15,.39,2.02,.25,4.03,.51,6.04,.78,1.15,.16,2.3,.32,3.45,.48,1.9,.27,3.79,.54,5.67,.83,1.16,.17,2.31,.35,3.46,.53,1.89,.3,3.78,.6,5.65,.92,1.09,.18,2.18,.36,3.27,.55,2.04,.35,4.06,.72,6.07,1.09,.89,.16,1.79,.32,2.67,.49,2.88,.55,5.75,1.11,8.58,1.69,.18,.04,.35,.08,.52,.11,2.65,.55,5.28,1.12,7.88,1.7,.92,.21,1.83,.42,2.75,.64,1.85,.43,3.69,.85,5.51,1.3,1.05,.26,2.1,.52,3.15,.78,1.67,.42,3.34,.84,4.99,1.27,1.07,.28,2.13,.56,3.19,.85,1.63,.44,3.24,.89,4.85,1.34,1.03,.29,2.06,.58,3.08,.88,1.66,.48,3.31,.98,4.95,1.47,.92,.28,1.84,.55,2.75,.84,1.99,.62,3.95,1.25,5.89,1.89,.53,.17,1.07,.34,1.6,.52,2.46,.82,4.88,1.66,7.27,2.51,.69,.25,1.36,.5,2.04,.75,1.7,.62,3.39,1.24,5.05,1.88,.88,.34,1.74,.68,2.61,1.02,.97,.38,1.93,.77,2.89,1.16-47.84,76.58-122.13,133.89-207.7,160.7Z"/><g><path class="o" d="M967.51,328.64c-35.85-18.56-80.84-22.8-128.17-18.74,27.1,15.63,73.58,56.24,55.67,145.48,95.73-80.24,72.5-126.74,72.5-126.74Z"/><path class="p" d="M821.45,311.81c-137.79,17.45-287.99,97.77-287.99,97.77l64.73,179.25c139.92-43.16,228.14-85.27,283.42-122.61,16.56-99.23-23.47-138.74-60.16-154.42Zm-15.83,115.42c-19.33,6.98-38.48,3.03-42.76-8.82-4.28-11.85,7.92-27.12,27.26-34.1,19.33-6.98,38.48-3.03,42.76,8.82,4.28,11.85-7.92,27.12-27.26,34.1Z"/><ellipse class="n" cx="565.83" cy="499.2" rx="49.14" ry="95.29" transform="translate(-135.91 221.86) rotate(-19.86)"/><path class="q" d="M229.95,474.54c.39-26.99-6.91-81.52-76.98-50.58,0,0-20.28-26.43-50.7-14.61-30.42,11.81-31.69,37.97-31.69,37.97,0,0-25.35,11.86-11.41,41.01,0,0-20.1-3.63-43.79-3.42-5.38,4.96-9.82,11.19-12.57,18.85-7.49,20.86,.31,44.57,18.9,56.63,16.83,10.91,37.63,9.92,53.02-.45,3.56,8.51,10.16,16.24,19.23,21.48,6.78,3.92,14.07,5.9,21.14,6.19-13.62,31.55-10.33,63.29,9.15,74.54,22,12.7,56.29-5.53,76.6-40.71,4.54-7.86,7.99-15.9,10.37-23.79,0,.27-.02,.53-.02,.8,0,36.18,29.33,65.51,65.51,65.51,7.28,0,14.27-1.2,20.81-3.4,12.49,24.03,40.02,40.74,72,40.74,22.23,0,42.31-8.08,56.69-21.08,12.66,12.99,30.34,21.08,49.91,21.08,21.58,0,40.87-9.82,53.66-25.22,1.68,.14,3.37,.24,5.08,.24,35.47,0,64.22-31.2,64.22-69.69,0-24.54-11.69-46.1-29.35-58.52,4.71-9.69,7.38-20.73,7.38-32.44,0-34.81-23.52-63.65-54.25-68.85,7.46-7.1,12-16.45,12-26.71,0-22.17-21.16-40.14-47.27-40.14-13.58,0-25.81,4.87-34.44,12.66-7.35-16.3-17.98-26.54-29.82-26.54-4.96,0-9.71,1.81-14.1,5.1-13.59-12.44-30.65-19.87-49.19-19.87-44.33,0-80.27,42.35-80.27,94.6,0,1.18,.04,2.35,.08,3.52-6.21-1.99-12.79-3.08-19.61-3.08h-.13c-8.21,.02-15.96,3.95-21.03,10.41-4.02,5.11-7.44,11.08-9.17,17.79"/><path class="o" d="M462.15,650.51s119.32,55.08,248.93-30.24v-55.79l-62.64,22.36,2.98,21.56s-65.91,47.82-189.27,42.11Z"/><path class="o" d="M388.82,451.69s48.72-122.05,201.49-149.28l35.46,49.28-54.09,23.43-16.51-23.07s-80.73,10.62-166.35,99.63Z"/><polygon class="o" points="688.68 466.22 668.4 433.42 448.71 550.71 688.68 466.22"/></g></g></g><g id="g"><g id="h"/></g><g id="i"/><g id="j"/><g id="k"/><g id="l"/><g id="m"><g><path class="o" d="M1075.71,278.69h70.73l79.7,161.12,79.35-161.12h70.73l-127.65,241.5h-45.2l-127.65-241.5Z"/><path class="o" d="M1663.94,278.69v241.5h-72.45v-102.81h-127.65v102.81h-73.83v-241.5h273.93Zm-199.07,35.54v67.28h124.89v-67.28h-124.89Z"/><path class="o" d="M1763.98,434.63v85.56h-72.45v-241.5h267.38v155.94h-194.93Zm-.69-120.41v84.87h123.17v-84.87h-123.17Z"/><path class="o" d="M2045.16,520.19l-58.65-66.58v-174.92h273.93v241.5h-215.28Zm13.46-205.97v123.86l41.05,46.58h88.67v-170.43h-129.72Z"/><path class="o" d="M2587.49,520.19h-85.21l-130.07-148.35h122.13v-57.62h-133.17v205.97h-73.14v-241.5h277.38v128.69h-76.59l98.67,112.82Z"/><path class="p" d="M3080.14,484.65l-31.05,35.54h-240.81v-241.5h271.52l-30.71,35.54h-166.98v170.43h198.03Z"/><path class="p" d="M3159.49,520.19l-58.65-66.58v-174.92h273.93v241.5h-215.28Zm13.46-205.97v123.86l41.05,46.58h88.67v-170.43h-129.72Z"/><path class="p" d="M3701.83,520.19h-85.21l-130.07-148.35h122.13v-57.62h-133.17v205.97h-73.14v-241.5h277.38v128.69h-76.59l98.67,112.82Z"/><path class="p" d="M3788.07,434.63v85.56h-72.45v-241.5h267.38v155.94h-194.93Zm-.69-120.41v84.87h123.17v-84.87h-123.17Z"/></g></g></svg>